<?xml version="1.0" encoding="UTF-8"?>
<!DOCTYPE svg PUBLIC "-//W3C//DTD SVG 1.1//EN" "http://www.w3.org/Graphics/SVG/1.1/DTD/svg11.dtd">
<!-- Creator: CorelDRAW (Versão OEM) -->
<svg xmlns="http://www.w3.org/2000/svg" xml:space="preserve" width="292.483mm" height="105.203mm" version="1.1" style="shape-rendering:geometricPrecision; text-rendering:geometricPrecision; image-rendering:optimizeQuality; fill-rule:evenodd; clip-rule:evenodd"
viewBox="0 0 2745.82 987.64"
 xmlns:xlink="http://www.w3.org/1999/xlink"
 xmlns:xodm="http://www.corel.com/coreldraw/odm/2003">
 <defs>
  <style type="text/css">
   <![CDATA[
    .fil1 {fill:#FEFEFE}
    .fil0 {fill:#0084FF}
   ]]>
  </style>
 </defs>
 <g id="Camada_x0020_1">
  <metadata id="CorelCorpID_0Corel-Layer"/>
  <polygon class="fil0" points="2745.82,374.41 2098.36,374.27 2067.86,496.46 2102.5,620.1 2745.82,620.23 "/>
  <polygon class="fil0" points="2745.66,2.59 2192.76,2.59 2130.31,248.4 2745.66,248.4 "/>
  <polygon class="fil0" points="2745.78,740.21 2132.28,740.21 2196.7,986.04 2745.78,986.04 "/>
  <polygon class="fil1" points="1731.45,2.77 1472.31,2.77 1472.31,986.04 1731.45,986.04 1731.45,529.88 1860.28,986.04 2119.44,986.04 1990.6,494.41 2115.51,2.49 2055.89,2.77 1860.28,2.77 1731.45,381.04 "/>
  <path class="fil1" d="M1111.57 0l-855.39 4.36 -256.18 983.28 266.55 0 122.92 -470.55 122.92 470.55 266.55 0 -191.04 -737.44 517.63 -1.42c80.79,-7.67 114.88,121.06 0,123.62l-308.84 0 -4.44 245.81 310.99 368.04 331.71 0c-105.33,-123.68 -210.65,-247.36 -315.96,-371.01 379.62,-8.33 480.09,-559.5 -7.42,-615.25z"/>
 </g>
</svg>
